<svg width="20" height="20" viewBox="0 0 20 20" fill="none" xmlns="http://www.w3.org/2000/svg">
<path d="M16.475 11.4582H13.1083C11.4333 11.4582 10.625 10.6832 10.625 9.08317V3.4165C10.625 1.8165 11.4417 1.0415 13.1083 1.0415H16.475C18.15 1.0415 18.9583 1.8165 18.9583 3.4165V9.08317C18.9583 10.6832 18.1417 11.4582 16.475 11.4582ZM13.1083 2.2915C12.05 2.2915 11.875 2.57484 11.875 3.4165V9.08317C11.875 9.92484 12.05 10.2082 13.1083 10.2082H16.475C17.5333 10.2082 17.7083 9.92484 17.7083 9.08317V3.4165C17.7083 2.57484 17.5333 2.2915 16.475 2.2915H13.1083Z" fill="#004951"/>
<path d="M16.475 18.9585H13.1083C11.4333 18.9585 10.625 18.1835 10.625 16.5835V15.0835C10.625 13.4835 11.4417 12.7085 13.1083 12.7085H16.475C18.15 12.7085 18.9583 13.4835 18.9583 15.0835V16.5835C18.9583 18.1835 18.1417 18.9585 16.475 18.9585ZM13.1083 13.9585C12.05 13.9585 11.875 14.2418 11.875 15.0835V16.5835C11.875 17.4252 12.05 17.7085 13.1083 17.7085H16.475C17.5333 17.7085 17.7083 17.4252 17.7083 16.5835V15.0835C17.7083 14.2418 17.5333 13.9585 16.475 13.9585H13.1083Z" fill="#004951"/>
<path d="M6.89175 18.9582H3.52508C1.85008 18.9582 1.04175 18.1832 1.04175 16.5832V10.9165C1.04175 9.3165 1.85841 8.5415 3.52508 8.5415H6.89175C8.56675 8.5415 9.37508 9.3165 9.37508 10.9165V16.5832C9.37508 18.1832 8.55841 18.9582 6.89175 18.9582ZM3.52508 9.7915C2.46675 9.7915 2.29175 10.0748 2.29175 10.9165V16.5832C2.29175 17.4248 2.46675 17.7082 3.52508 17.7082H6.89175C7.95008 17.7082 8.12508 17.4248 8.12508 16.5832V10.9165C8.12508 10.0748 7.95008 9.7915 6.89175 9.7915H3.52508Z" fill="#004951"/>
<path d="M6.89175 7.2915H3.52508C1.85008 7.2915 1.04175 6.5165 1.04175 4.9165V3.4165C1.04175 1.8165 1.85841 1.0415 3.52508 1.0415H6.89175C8.56675 1.0415 9.37508 1.8165 9.37508 3.4165V4.9165C9.37508 6.5165 8.55841 7.2915 6.89175 7.2915ZM3.52508 2.2915C2.46675 2.2915 2.29175 2.57484 2.29175 3.4165V4.9165C2.29175 5.75817 2.46675 6.0415 3.52508 6.0415H6.89175C7.95008 6.0415 8.12508 5.75817 8.12508 4.9165V3.4165C8.12508 2.57484 7.95008 2.2915 6.89175 2.2915H3.52508Z" fill="#004951"/>
</svg>
