<svg preserveAspectRatio="none" width="100%" height="100%" overflow="visible" style="display: block;" viewBox="0 0 1534.27 1167.41" fill="none" xmlns="http://www.w3.org/2000/svg">
<g id="verti lines">
<line id="Line 1" x1="0.6304" y1="0.000174668" x2="0.630349" y2="1167.41" stroke="var(--stroke-0, #E6F7F9)" stroke-opacity="0.1" stroke-width="1.2607"/>
<line id="Line 9" x1="646.111" y1="0.000179725" x2="646.111" y2="1167.41" stroke="var(--stroke-0, #E6F7F9)" stroke-opacity="0.1" stroke-width="1.2607"/>
<line id="Line 5" x1="323.371" y1="2.75534e-08" x2="323.371" y2="1167.41" stroke="var(--stroke-0, #E6F7F9)" stroke-opacity="0.1" stroke-width="1.2607"/>
<line id="Line 10" x1="968.847" y1="0.000179725" x2="968.847" y2="1167.41" stroke="var(--stroke-0, #E6F7F9)" stroke-opacity="0.1" stroke-width="1.2607"/>
<line id="Line 17" x1="1291.59" y1="0.000179725" x2="1291.59" y2="1167.41" stroke="var(--stroke-0, #E6F7F9)" stroke-opacity="0.1" stroke-width="1.2607"/>
<line id="Line 3" x1="162.001" y1="0.000179725" x2="162.001" y2="1167.41" stroke="var(--stroke-0, #E6F7F9)" stroke-opacity="0.1" stroke-width="1.2607"/>
<line id="Line 11" x1="807.477" y1="0.000179725" x2="807.477" y2="1167.41" stroke="var(--stroke-0, #E6F7F9)" stroke-opacity="0.1" stroke-width="1.2607"/>
<line id="Line 6" x1="484.741" y1="0.000179725" x2="484.741" y2="1167.41" stroke="var(--stroke-0, #E6F7F9)" stroke-opacity="0.1" stroke-width="1.2607"/>
<line id="Line 12" x1="1130.22" y1="2.75534e-08" x2="1130.22" y2="1167.41" stroke="var(--stroke-0, #E6F7F9)" stroke-opacity="0.1" stroke-width="1.2607"/>
<line id="Line 18" x1="1452.96" y1="0.000179725" x2="1452.96" y2="1167.41" stroke="var(--stroke-0, #E6F7F9)" stroke-opacity="0.1" stroke-width="1.2607"/>
<line id="Line 2" x1="81.3177" y1="0.000179725" x2="81.3176" y2="1167.41" stroke="var(--stroke-0, #E6F7F9)" stroke-opacity="0.1" stroke-width="1.2607"/>
<line id="Line 13" x1="726.794" y1="2.75534e-08" x2="726.794" y2="1167.41" stroke="var(--stroke-0, #E6F7F9)" stroke-opacity="0.1" stroke-width="1.2607"/>
<line id="Line 7" x1="404.054" y1="0.000179725" x2="404.054" y2="1167.41" stroke="var(--stroke-0, #E6F7F9)" stroke-opacity="0.1" stroke-width="1.2607"/>
<line id="Line 14" x1="1049.53" y1="0.000179725" x2="1049.53" y2="1167.41" stroke="var(--stroke-0, #E6F7F9)" stroke-opacity="0.1" stroke-width="1.2607"/>
<line id="Line 19" x1="1372.27" y1="0.000179725" x2="1372.27" y2="1167.41" stroke="var(--stroke-0, #E6F7F9)" stroke-opacity="0.1" stroke-width="1.2607"/>
<line id="Line 4" x1="242.688" y1="0.000179725" x2="242.688" y2="1167.41" stroke="var(--stroke-0, #E6F7F9)" stroke-opacity="0.1" stroke-width="1.2607"/>
<line id="Line 15" x1="888.164" y1="0.000179725" x2="888.164" y2="1167.41" stroke="var(--stroke-0, #E6F7F9)" stroke-opacity="0.1" stroke-width="1.2607"/>
<line id="Line 8" x1="565.424" y1="0.000179725" x2="565.424" y2="1167.41" stroke="var(--stroke-0, #E6F7F9)" stroke-opacity="0.1" stroke-width="1.2607"/>
<line id="Line 16" x1="1210.9" y1="0.000179725" x2="1210.9" y2="1167.41" stroke="var(--stroke-0, #E6F7F9)" stroke-opacity="0.1" stroke-width="1.2607"/>
<line id="Line 20" x1="1533.64" y1="2.75534e-08" x2="1533.64" y2="1167.41" stroke="var(--stroke-0, #E6F7F9)" stroke-opacity="0.1" stroke-width="1.2607"/>
</g>
</svg>
